<svg width="129" height="129" viewBox="0 0 129 129" fill="none" xmlns="http://www.w3.org/2000/svg">
<circle cx="64.5" cy="64.5" r="64.5" fill="#2E4216" fill-opacity="0.2"/>
<circle cx="64.5" cy="64.5" r="60.7059" fill="#8EC747"/>
<circle cx="64.5" cy="64.5" r="60.7059" fill="url(#paint0_linear)"/>
<path fill-rule="evenodd" clip-rule="evenodd" d="M126.118 66.8675C126.137 66.2376 126.147 65.6052 126.147 64.9706C126.147 31.1838 98.7574 3.79414 64.9706 3.79414C31.1838 3.79414 3.79413 31.1838 3.79413 64.9706C3.79413 65.6053 3.80379 66.2377 3.82298 66.8678C4.8253 33.9586 31.8184 7.58821 64.9706 7.58821C98.1227 7.58821 125.116 33.9585 126.118 66.8675Z" fill="#B9E867"/>
<path fill-rule="evenodd" clip-rule="evenodd" d="M126.118 63.0735C125.116 95.9826 98.1228 122.353 64.9706 122.353C31.8184 122.353 4.82538 95.9826 3.82298 63.0735C3.80379 63.7036 3.79413 64.336 3.79413 64.9706C3.79413 98.7575 31.1838 126.147 64.9706 126.147C98.7574 126.147 126.147 98.7575 126.147 64.9706C126.147 64.336 126.137 63.7036 126.118 63.0735Z" fill="#8CC347"/>
<ellipse cx="64.5" cy="68.2941" rx="49.3235" ry="34.1471" fill="black" fill-opacity="0.2"/>
<ellipse cx="64.5" cy="64.5" rx="49.3235" ry="34.1471" fill="#FAFAFA"/>
<path fill-rule="evenodd" clip-rule="evenodd" d="M64.7353 83.7942C81.6287 83.7942 95.3235 74.379 95.3235 62.7647C95.3235 51.1505 81.6287 41.7353 64.7353 41.7353C47.8419 41.7353 34.147 51.1505 34.147 62.7647C34.147 74.379 47.8419 83.7942 64.7353 83.7942Z" fill="#8EC747"/>
<path fill-rule="evenodd" clip-rule="evenodd" d="M64.7353 83.7942C81.6287 83.7942 95.3235 74.379 95.3235 62.7647C95.3235 51.1505 81.6287 41.7353 64.7353 41.7353C47.8419 41.7353 34.147 51.1505 34.147 62.7647C34.147 74.379 47.8419 83.7942 64.7353 83.7942Z" fill="url(#paint1_linear)"/>
<ellipse cx="64.4999" cy="62.6029" rx="11.3824" ry="9.48529" fill="#FAFAFA"/>
<defs>
<linearGradient id="paint0_linear" x1="64.5" y1="3.79414" x2="64.5" y2="125.206" gradientUnits="userSpaceOnUse">
<stop stop-color="#B9E968"/>
<stop offset="1" stop-color="white" stop-opacity="0"/>
</linearGradient>
<linearGradient id="paint1_linear" x1="64.7353" y1="11.6933" x2="64.7353" y2="113.836" gradientUnits="userSpaceOnUse">
<stop stop-color="#B9E968"/>
<stop offset="1" stop-color="white" stop-opacity="0"/>
</linearGradient>
</defs>
</svg>
