<svg width="65" height="65" viewBox="0 0 65 65" fill="none" xmlns="http://www.w3.org/2000/svg">
<circle cx="32.5" cy="32.5" r="32.5" fill="#2E4216" fill-opacity="0.2"/>
<circle cx="32.5" cy="32.5" r="30.5882" fill="#8EC747"/>
<circle cx="32.5" cy="32.5" r="30.5882" fill="url(#paint0_linear)"/>
<path fill-rule="evenodd" clip-rule="evenodd" d="M63.0736 33.4554C63.0833 33.1382 63.0882 32.8197 63.0882 32.5C63.0882 15.6066 49.3934 1.91177 32.5 1.91177C15.6066 1.91177 1.91174 15.6066 1.91174 32.5C1.91174 32.8199 1.91666 33.1387 1.92641 33.4563C2.43116 17.005 15.9262 3.82352 32.5 3.82352C49.0735 3.82352 62.5684 17.0045 63.0736 33.4554Z" fill="#B9E867"/>
<path fill-rule="evenodd" clip-rule="evenodd" d="M63.0736 31.5441C62.5686 47.9952 49.0737 61.1765 32.5 61.1765C15.9264 61.1765 2.43145 47.9952 1.92646 31.5441C1.91671 31.8616 1.9118 32.1802 1.9118 32.5C1.9118 49.3934 15.6066 63.0883 32.5 63.0883C49.3935 63.0883 63.0883 49.3934 63.0883 32.5C63.0883 32.1802 63.0834 31.8616 63.0736 31.5441Z" fill="#8CC347"/>
<ellipse cx="32.5" cy="34.4118" rx="24.8529" ry="17.2059" fill="black" fill-opacity="0.2"/>
<ellipse cx="32.5" cy="32.5" rx="24.8529" ry="17.2059" fill="#FAFAFA"/>
<path fill-rule="evenodd" clip-rule="evenodd" d="M32.5 42.0588C40.9467 42.0588 47.7941 37.3512 47.7941 31.5441C47.7941 25.737 40.9467 21.0294 32.5 21.0294C24.0533 21.0294 17.2059 25.737 17.2059 31.5441C17.2059 37.3512 24.0533 42.0588 32.5 42.0588Z" fill="#8EC747"/>
<path fill-rule="evenodd" clip-rule="evenodd" d="M32.5 42.0588C40.9467 42.0588 47.7941 37.3512 47.7941 31.5441C47.7941 25.737 40.9467 21.0294 32.5 21.0294C24.0533 21.0294 17.2059 25.737 17.2059 31.5441C17.2059 37.3512 24.0533 42.0588 32.5 42.0588Z" fill="url(#paint1_linear)"/>
<ellipse cx="32.5" cy="31.5441" rx="5.73529" ry="4.77941" fill="#FAFAFA"/>
<defs>
<linearGradient id="paint0_linear" x1="32.5" y1="1.91177" x2="32.5" y2="63.0882" gradientUnits="userSpaceOnUse">
<stop stop-color="#B9E968"/>
<stop offset="1" stop-color="white" stop-opacity="0"/>
</linearGradient>
<linearGradient id="paint1_linear" x1="32.5" y1="6.00843" x2="32.5" y2="57.0798" gradientUnits="userSpaceOnUse">
<stop stop-color="#B9E968"/>
<stop offset="1" stop-color="white" stop-opacity="0"/>
</linearGradient>
</defs>
</svg>
