<svg width="25" height="25" viewBox="0 0 25 25" fill="none" xmlns="http://www.w3.org/2000/svg">
<circle cx="12.5" cy="12.5" r="12.5" fill="#2E4216" fill-opacity="0.2"/>
<circle cx="12.5" cy="12.5" r="11.7647" fill="#8EC747"/>
<circle cx="12.5" cy="12.5" r="11.7647" fill="url(#paint0_linear)"/>
<path fill-rule="evenodd" clip-rule="evenodd" d="M24.2591 12.8677C24.2628 12.7456 24.2647 12.623 24.2647 12.5C24.2647 6.00254 18.9975 0.735306 12.5 0.735306C6.00253 0.735306 0.735291 6.00254 0.735291 12.5C0.735291 12.623 0.737178 12.7456 0.740925 12.8676C0.935146 6.54029 6.12552 1.47058 12.5 1.47058C18.8745 1.47058 24.0649 6.54031 24.2591 12.8677Z" fill="#B9E867"/>
<path fill-rule="evenodd" clip-rule="evenodd" d="M24.2591 12.1324C24.0649 18.4597 18.8745 23.5294 12.5001 23.5294C6.12559 23.5294 0.935215 18.4597 0.740987 12.1324C0.737239 12.2544 0.735352 12.377 0.735352 12.5C0.735352 18.9975 6.00259 24.2647 12.5001 24.2647C18.9975 24.2647 24.2648 18.9975 24.2648 12.5C24.2648 12.377 24.2629 12.2544 24.2591 12.1324Z" fill="#8CC347"/>
<ellipse cx="12.5" cy="13.2353" rx="9.55882" ry="6.61765" fill="black" fill-opacity="0.2"/>
<ellipse cx="12.5" cy="12.5" rx="9.55882" ry="6.61765" fill="#FAFAFA"/>
<path fill-rule="evenodd" clip-rule="evenodd" d="M12.5 16.1765C15.7487 16.1765 18.3824 14.3659 18.3824 12.1324C18.3824 9.89885 15.7487 8.08824 12.5 8.08824C9.25126 8.08824 6.61765 9.89885 6.61765 12.1324C6.61765 14.3659 9.25126 16.1765 12.5 16.1765Z" fill="#8EC747"/>
<path fill-rule="evenodd" clip-rule="evenodd" d="M12.5 16.1765C15.7487 16.1765 18.3824 14.3659 18.3824 12.1324C18.3824 9.89885 15.7487 8.08824 12.5 8.08824C9.25126 8.08824 6.61765 9.89885 6.61765 12.1324C6.61765 14.3659 9.25126 16.1765 12.5 16.1765Z" fill="url(#paint1_linear)"/>
<ellipse cx="12.5" cy="12.1323" rx="2.20588" ry="1.83824" fill="#FAFAFA"/>
<defs>
<linearGradient id="paint0_linear" x1="12.5" y1="0.735306" x2="12.5" y2="24.2647" gradientUnits="userSpaceOnUse">
<stop stop-color="#B9E968"/>
<stop offset="1" stop-color="white" stop-opacity="0"/>
</linearGradient>
<linearGradient id="paint1_linear" x1="12.5" y1="2.31093" x2="12.5" y2="21.9538" gradientUnits="userSpaceOnUse">
<stop stop-color="#B9E968"/>
<stop offset="1" stop-color="white" stop-opacity="0"/>
</linearGradient>
</defs>
</svg>
