<svg width="17" height="17" viewBox="0 0 17 17" fill="none" xmlns="http://www.w3.org/2000/svg">
<circle cx="8.5" cy="8.5" r="8.5" fill="#2E4216" fill-opacity="0.2"/>
<circle cx="8.5" cy="8.50002" r="8" fill="#8EC747"/>
<circle cx="8.5" cy="8.50002" r="8" fill="url(#paint0_linear)"/>
<path fill-rule="evenodd" clip-rule="evenodd" d="M16.4962 8.75005C16.4987 8.66702 16.5 8.58367 16.5 8.50002C16.5 4.08174 12.9183 0.500015 8.5 0.500015C4.08172 0.500015 0.5 4.08174 0.5 8.50002C0.5 8.58364 0.501283 8.66696 0.50383 8.74997C0.63592 4.44738 4.16537 0.999995 8.5 0.999995C12.8347 0.999995 16.3641 4.44742 16.4962 8.75005Z" fill="#B9E867"/>
<path fill-rule="evenodd" clip-rule="evenodd" d="M16.4962 8.25C16.3642 12.5526 12.8347 16 8.50006 16C4.16542 16 0.635969 12.5526 0.503893 8.25C0.501345 8.33302 0.500061 8.41636 0.500061 8.5C0.500061 12.9183 4.08178 16.5 8.50006 16.5C12.9183 16.5 16.5001 12.9183 16.5001 8.5C16.5001 8.41636 16.4988 8.33302 16.4962 8.25Z" fill="#8CC347"/>
<ellipse cx="8.5" cy="9" rx="6.5" ry="4.5" fill="black" fill-opacity="0.2"/>
<ellipse cx="8.5" cy="8.5" rx="6.5" ry="4.5" fill="#FAFAFA"/>
<path fill-rule="evenodd" clip-rule="evenodd" d="M8.5 11C10.7091 11 12.5 9.76878 12.5 8.25C12.5 6.73122 10.7091 5.5 8.5 5.5C6.29086 5.5 4.5 6.73122 4.5 8.25C4.5 9.76878 6.29086 11 8.5 11Z" fill="#8EC747"/>
<path fill-rule="evenodd" clip-rule="evenodd" d="M8.5 11C10.7091 11 12.5 9.76878 12.5 8.25C12.5 6.73122 10.7091 5.5 8.5 5.5C6.29086 5.5 4.5 6.73122 4.5 8.25C4.5 9.76878 6.29086 11 8.5 11Z" fill="url(#paint1_linear)"/>
<ellipse cx="8.5" cy="8.25" rx="1.5" ry="1.25" fill="#FAFAFA"/>
<defs>
<linearGradient id="paint0_linear" x1="8.5" y1="0.500015" x2="8.5" y2="16.5" gradientUnits="userSpaceOnUse">
<stop stop-color="#B9E968"/>
<stop offset="1" stop-color="white" stop-opacity="0"/>
</linearGradient>
<linearGradient id="paint1_linear" x1="8.5" y1="1.57143" x2="8.5" y2="14.9286" gradientUnits="userSpaceOnUse">
<stop stop-color="#B9E968"/>
<stop offset="1" stop-color="white" stop-opacity="0"/>
</linearGradient>
</defs>
</svg>
