<svg width="33" height="33" viewBox="0 0 33 33" fill="none" xmlns="http://www.w3.org/2000/svg">
<circle cx="16.5" cy="16.5" r="16.5" fill="#2E4216" fill-opacity="0.2"/>
<circle cx="16.5" cy="16.5" r="15.5294" fill="#8EC747"/>
<circle cx="16.5" cy="16.5" r="15.5294" fill="url(#paint0_linear)"/>
<path fill-rule="evenodd" clip-rule="evenodd" d="M32.022 16.9853C32.0269 16.8242 32.0294 16.6624 32.0294 16.5C32.0294 7.92335 25.0766 0.970596 16.5 0.970596C7.92334 0.970596 0.970581 7.92335 0.970581 16.5C0.970581 16.6623 0.973072 16.8241 0.978018 16.9853C1.23441 8.63316 8.0857 1.94117 16.5 1.94117C24.9143 1.94117 31.7656 8.6332 32.022 16.9853Z" fill="#B9E867"/>
<path fill-rule="evenodd" clip-rule="evenodd" d="M32.022 16.0147C31.7656 24.3668 24.9144 31.0588 16.5001 31.0588C8.08576 31.0588 1.23446 24.3668 0.978081 16.0147C0.973134 16.1759 0.970642 16.3376 0.970642 16.5C0.970642 25.0767 7.9234 32.0294 16.5001 32.0294C25.0767 32.0294 32.0295 25.0767 32.0295 16.5C32.0295 16.3376 32.027 16.1759 32.022 16.0147Z" fill="#8CC347"/>
<ellipse cx="16.5" cy="17.4706" rx="12.6176" ry="8.73529" fill="black" fill-opacity="0.2"/>
<ellipse cx="16.5" cy="16.5" rx="12.6176" ry="8.73529" fill="#FAFAFA"/>
<path fill-rule="evenodd" clip-rule="evenodd" d="M16.5 21.353C20.7883 21.353 24.2647 18.9629 24.2647 16.0147C24.2647 13.0665 20.7883 10.6765 16.5 10.6765C12.2117 10.6765 8.73529 13.0665 8.73529 16.0147C8.73529 18.9629 12.2117 21.353 16.5 21.353Z" fill="#8EC747"/>
<path fill-rule="evenodd" clip-rule="evenodd" d="M16.5 21.353C20.7883 21.353 24.2647 18.9629 24.2647 16.0147C24.2647 13.0665 20.7883 10.6765 16.5 10.6765C12.2117 10.6765 8.73529 13.0665 8.73529 16.0147C8.73529 18.9629 12.2117 21.353 16.5 21.353Z" fill="url(#paint1_linear)"/>
<ellipse cx="16.5" cy="16.0147" rx="2.91176" ry="2.42647" fill="#FAFAFA"/>
<defs>
<linearGradient id="paint0_linear" x1="16.5" y1="0.970596" x2="16.5" y2="32.0294" gradientUnits="userSpaceOnUse">
<stop stop-color="#B9E968"/>
<stop offset="1" stop-color="white" stop-opacity="0"/>
</linearGradient>
<linearGradient id="paint1_linear" x1="16.5" y1="3.05043" x2="16.5" y2="28.979" gradientUnits="userSpaceOnUse">
<stop stop-color="#B9E968"/>
<stop offset="1" stop-color="white" stop-opacity="0"/>
</linearGradient>
</defs>
</svg>
